/* XPM */
static char *QuickRoute_32x32[] = {
/* columns rows colors chars-per-pixel */
"32 32 179 2 ",
"   c black",
".  c #1A1A03030303",
"X  c #034316960000",
"o  c #070718180000",
"O  c #0A0A19190000",
"+  c #1B1B13690101",
"@  c #15151B1B0000",
"#  c #1AB419B30000",
"$  c #323207070606",
"%  c #333316160404",
"&  c #333319190404",
"*  c #11923F3F0000",
"=  c #333327270202",
"-  c #333329290101",
";  c #2A2A33330000",
":  c #313133330000",
">  c #47470B0B0808",
",  c #5A5A10100A0A",
"<  c #6D6D1F1F0A0A",
"1  c #7B7B14140E0E",
"2  c #7B7B1B1B0D0D",
"3  c #494932320303",
"4  c #5C5C31310606",
"5  c #7D7D37370909",
"6  c #161640400000",
"7  c #1F1F44440000",
"8  c #040457570000",
"9  c #272746460000",
"0  c #3F3F49490000",
"q  c #202053530000",
"w  c #131369690000",
"e  c #06067A7A0101",
"r  c #08087B7B0101",
"t  c #1A1A77770000",
"y  c #494947470000",
"u  c #464649490000",
"i  c #5C5C46460303",
"p  c #5C5C4D4D0202",
"a  c #6D6D44440586",
"s  c #6D6D4F4F0404",
"d  c #6D6D51510404",
"f  c #6D6D5D5D0202",
"g  c #48486C6C0000",
"h  c #7D7D68680303",
"j  c #7D7D72720202",
"k  c #7AFA7D7D0000",
"l  c #888810101010",
"z  c #A2A216161313",
"x  c #B7B716161616",
"c  c #B8B81B1B1515",
"v  c #8B8B26260E0E",
"b  c #A2A220201111",
"n  c #C0C017171717",
"m  c #C0C018181717",
"M  c #E0E01D1D1B1B",
"N  c #DBDB30301717",
"B  c #E16121A21A1A",
"V  c #E1E129AA1919",
"C  c #E3E337371717",
"Z  c #E4E43C3C1717",
"A  c #8C8C4BCC0909",
"S  c #99995D5D0889",
"D  c #BCBC42421010",
"F  c #8C8C62620586",
"G  c #8C8C76760303",
"H  c #8C8C7C7C0202",
"J  c #999973730505",
"K  c #99997A7A0404",
"L  c #B1B163630B0B",
"P  c #D7D74A4A1313",
"I  c #E6E644441616",
"U  c #E6E649491515",
"Y  c #E6E657571313",
"T  c #E6E65E5E1212",
"R  c #CFCF67670D0D",
"E  c #DFDF72720F0F",
"W  c #DFDF7B7B0E0E",
"Q  c #E6E67C7C0E0E",
"!  c #E6E667671111",
"~  c #E6E66D6D1010",
"^  c #1C1C94940000",
"/  c #1E1E9D9D0000",
"(  c #2E2E88880000",
")  c #363694940000",
"_  c #3A3A9E9E0000",
"`  c #0D8EA3A30101",
"'  c #1414A2220101",
"]  c #199AA3230081",
"[  c #1313A8A80101",
"{  c #0E0EB3B30101",
"}  c #1D9EB2320081",
"|  c #1414BBBB0101",
" . c #1A1ABDBD0101",
".. c #24A5A7270000",
"X. c #3E3EAFAF0000",
"o. c #20A1BF3F0000",
"O. c #2F2FB8B80000",
"+. c #5A5A8A8A0000",
"@. c #4B4B9B9B0000",
"#. c #575795950000",
"$. c #6A6A8C8C0000",
"%. c #71718C8C0000",
"&. c #636397970000",
"*. c #6D6D99990000",
"=. c #7F7F99990000",
"-. c #5A5AA4230000",
";. c #4E4EB4B40000",
":. c #5757BEBE0000",
">. c #5D5DBABA0000",
",. c #6B6BBEBE0000",
"<. c #2A2AC2C20000",
"1. c #3288C4190000",
"2. c #39BAC7C70000",
"3. c #3F3FC9C90000",
"4. c #4141CACA0000",
"5. c #4BCCCE4E0000",
"6. c #5151CFCF0000",
"7. c #5858D2D20000",
"8. c #7B7BC1C10000",
"9. c #63B9D4290000",
"0. c #6A6AD8D80000",
"q. c #72F3DA5A0000",
"w. c #7C7CDB850000",
"e. c #8C8C8B8B0000",
"r. c #999987870303",
"t. c #99998B8B0202",
"y. c #999993930101",
"u. c #B1B18A8A0505",
"i. c #8383BCBC0000",
"p. c #9292BCBC0000",
"a. c #B1B1A9A90202",
"s. c #A0A0B1B10000",
"d. c #BCBCB0B00202",
"f. c #CFCF8E8E0909",
"g. c #D7D78C8C0A0A",
"h. c #C6C69A9A0606",
"j. c #D7D790900A0A",
"k. c #DFDF96960A8B",
"l. c #E6E685050E0E",
"z. c #E6E68C0C0CCD",
"x. c #E6E6923C0C0C",
"c. c #E6E69A9A0AB5",
"v. c #D7D7A5A50707",
"b. c #C6C6BEBE0202",
"n. c #CFCFBABA0404",
"m. c #DFDFB7B70606",
"M. c #E6E6A4230949",
"N. c #E6E6AB6B0889",
"B. c #E6E6B5B5065C",
"V. c #E6E6BD3D0586",
"C. c #9F9FD7D70000",
"Z. c #AEAECFCF0000",
"A. c #A4A4DFDF0000",
"S. c #BEBED7D70000",
"D. c #8585E0E00000",
"F. c #8C0CE1E10000",
"G. c #9413E3630000",
"H. c #9C9CE5E50000",
"J. c #A4A4E6E60000",
"K. c #ADADE6E60000",
"L. c #B4B4E6E60000",
"P. c #BABAE6E60000",
"I. c #C6C6C4C40000",
"U. c #CFCFC6C60202",
"Y. c #D7D7C3C30303",
"T. c #DFDFC3C30505",
"R. c #DFDFCBCB0303",
"E. c #D7D7D7D70000",
"W. c #DADADFDF0000",
"Q. c #E6E6C5450505",
"!. c #E6E6CC65046B",
"~. c #E6E6D5D50303",
"^. c #E6E6DB3001AC",
"/. c #C419E6E60000",
"(. c #CD77E6E60000",
"). c #D5D5E6E60000",
"_. c #DB30E6E60000",
"`. c #E504E4E40060",
"'. c None",
/* pixels */
"'.'.'.'.'.'.'.'.'.'.'.'.'.'.'.'.'.'.'.'.'.'.'.'.'.'.'.'.'.'.'.'.",
"'.'.'.'.'.'.'.'.'.'.'.'.'.'.'.'.'.'.'.'.'.'.'.'.'.'.'.'.'.'.'.'.",
"'.'.'.'.'.'.'.'.'.'.'.8 r ` ' ' ] ^ t * '.'.'.'.'.'.'.'.'.'.'.'.",
"'.'.'.'.'.'.'.'.'.e { |  . .} ..1.1.2.4.X.q '.'.'.'.'.'.'.'.'.'.",
"'.'.'.'.'.'.'.X ` |  .} w o '.'.  6 _ 6.7.9.@.'.'.'.'.'.'.'.'.'.",
"'.'.'.'.'.'.X [ o.o./ o '.'.'.'.'.'.'.7 9.q.w.-.'.'.'.'.'.'.'.'.",
"'.'.'.'.'.'.' o.o...'.'.'.'.'.'.'.'.'.'.9 w.F.G.g '.'.'.'.'.'.'.",
"'.'.'.'.'.w <.1.1.o '.'.'.'.'.'.'.'.'.'.'.+.H.J.A.@ '.'.'.'.'.'.",
"'.'.'.'.'.O.2.4.( '.'.'.'.'.'.'.'.'.'.'.'.'.C.L.P.=.'.'.'.'.'.'.",
"'.'.'.'.* 4.5.5.O '.'.'.'.'.'.'.'.'.'.'.'.'.%.P./.S.'.'.'.'.'.'.",
"'.'.'.'.) 6.7.6.'.'.'.'.'.'.'.'.'.'.'.'.'.'.u (.).).u '.'.'.'.'.",
"'.'.'.'.;.9.0.-.'.'.'.'.'.'.'.'.'.'.'.'.'.'.  _._.`.k '.'.'.'.'.",
"'.'.'.'.>.q.w.#.'.'.'.'.'.'.'.'.'.'.'.'.'.'.'.W.`.`.y.'.'.'.'.'.",
"'.'.'.'.,.D.F.&.'.'.'.'.'.'.'.'.'.'.'.'.'.'.'.I.`.`.y.'.'.'.'.'.",
"'.'.'.'.8.H.H.*.'.'.'.'.'.'.'.'.'.'.'.'.'.'.'.b.^.~.t.'.'.'.'.'.",
"'.'.'.'.i.J.K.p.'.'.'.'.'.'.'.'.'.'.'.'.'.'.  ~.!.!.f '.'.'.'.'.",
"'.'.'.'.$.L.P.Z.'.'.'.'.'.'.'.'.'.'.'.'.'.'.# !.Q.V.- '.'.'.'.'.",
"'.'.'.'.; /.(.(.# '.'.'.'.'.'.'.'.'.'.'.'.'.f V.B.v.'.'.'.'.'.'.",
"'.'.'.'.'.s.)._.k '.'.'.'.y a.d.j # '.'.'.'.u.N.N.F '.'.'.'.'.'.",
"'.'.'.'.'.: `.`.E.# '.'.y.~.R.!.!.Q.h '.'.= N.M.k.+ '.'.'.'.'.'.",
"'.'.'.'.'.'.e.`.`.U.# '.Y.H '.G B.B.B.s + f.c.z.a '.'.'.'.'.'.'.",
"'.'.'.'.'.'.'.a.~.~.n.r.Q.p '.'.i N.M.k.j.z.z.L '.'.'.'.'.'.'.'.",
"'.'.'.'.'.'.'.'.j Q.Q.V.V.h.J d F j.x.z.l.W A '.'.'.'.'.'.'.'.'.",
"'.'.'.'.'.'.'.'.'.# K v.N.M.M.c.x.z.l.Q E % '.'.'.'.'.'.'.'.'.'.",
"'.'.'.'.'.'.'.'.'.'.'.'.3 a S S A 4 R ~ ! % '.'.'.'.'.'.'.'.'.'.",
"'.'.'.'.'.'.'.'.'.'.'.'.'.'.'.'.'.'.5 T Y D '.'.'.'.'.'.'.'.'.'.",
"'.'.'.'.'.'.'.'.'.'.'.'.'.'.'.'.'.'.'.P U I v '.'.'.'.'.'.'.'.'.",
"'.'.'.'.'.'.'.'.'.'.'.'.'.'.'.'.'.'.'.< Z C N b , 1 c $ '.'.'.'.",
"'.'.'.'.'.'.'.'.'.'.'.'.'.'.'.'.'.'.'.'.2 V V B B M n '.'.'.'.'.",
"'.'.'.'.'.'.'.'.'.'.'.'.'.'.'.'.'.'.'.'.'.> z m x l . '.'.'.'.'.",
"'.'.'.'.'.'.'.'.'.'.'.'.'.'.'.'.'.'.'.'.'.'.'.'.'.'.'.'.'.'.'.'.",
"'.'.'.'.'.'.'.'.'.'.'.'.'.'.'.'.'.'.'.'.'.'.'.'.'.'.'.'.'.'.'.'."
};
