/* XPM */
static char *QuickRoute_64x64[] = {
/* columns rows colors chars-per-pixel */
"64 64 194 2 ",
"   c black",
".  c #1A0503",
"X  c #041600",
"o  c #091800",
"O  c #071800",
"+  c #1B1401",
"@  c #141B00",
"#  c #1A1A00",
"$  c #320706",
"%  c #331A03",
"&  c #082B00",
"*  c #122E00",
"=  c #063B00",
"-  c #332602",
";  c #283300",
":  c #323300",
">  c #470B08",
",  c #5C1809",
"<  c #510F09",
"1  c #7A0F0F",
"2  c #7B140E",
"3  c #6A0D0D",
"4  c #492705",
"5  c #5C2907",
"6  c #493B02",
"7  c #493403",
"8  c #5C3E04",
"9  c #783109",
"0  c #0A4C00",
"q  c #124700",
"w  c #0B5900",
"e  c #145C00",
"r  c #285500",
"t  c #3C5B00",
"y  c #3C4900",
"u  c #097601",
"i  c #127E01",
"p  c #187500",
"a  c #166900",
"s  c #216D00",
"d  c #287600",
"f  c #396F00",
"g  c #494301",
"h  c #5C4C02",
"j  c #5C5601",
"k  c #4B5C00",
"l  c #7D4408",
"z  c #6D5C02",
"x  c #7D5C05",
"c  c #447900",
"v  c #4C6D00",
"b  c #697D00",
"n  c #7A7A01",
"m  c #746A02",
"M  c #951312",
"N  c #B71A15",
"B  c #AF2A12",
"V  c #CD1B18",
"C  c #E01C1B",
"Z  c #D52917",
"A  c #DA3B16",
"S  c #C63913",
"D  c #E1231A",
"F  c #E12C19",
"G  c #E33517",
"H  c #E43C17",
"J  c #E33218",
"K  c #995809",
"L  c #8C5009",
"P  c #8C6A05",
"I  c #996707",
"U  c #996C06",
"Y  c #937D03",
"T  c #AD6B09",
"R  c #CB590F",
"E  c #CF4A12",
"W  c #E64416",
"Q  c #E64C15",
"!  c #E65513",
"~  c #E65C13",
"^  c #C6690D",
"/  c #C67B0A",
"(  c #C9770C",
")  c #DF740F",
"_  c #E67C0E",
"`  c #E6740F",
"'  c #E66212",
"]  c #E66A10",
"[  c #E67110",
"{  c #1E8300",
"}  c #139101",
"|  c #278400",
" . c #279700",
".. c #399A00",
"X. c #0EA701",
"o. c #15BB01",
"O. c #1CBD01",
"+. c #16B601",
"@. c #0FB401",
"#. c #25A300",
"$. c #2AA600",
"%. c #21BE00",
"&. c #27B400",
"*. c #32B600",
"=. c #478C00",
"-. c #499500",
";. c #579500",
":. c #5A8A00",
">. c #7A8C00",
",. c #749900",
"<. c #50A500",
"1. c #42B500",
"2. c #51BD00",
"3. c #44A100",
"4. c #6CAD00",
"5. c #25C000",
"6. c #2BC300",
"7. c #33C600",
"8. c #39C700",
"9. c #3DC800",
"0. c #44CB00",
"q. c #4DCE00",
"w. c #43C500",
"e. c #52CF00",
"r. c #56D100",
"t. c #5CD300",
"y. c #63CF00",
"u. c #64D500",
"i. c #6DD800",
"p. c #69D700",
"a. c #74DA00",
"s. c #7CDD00",
"d. c #998603",
"f. c #999301",
"g. c #989900",
"h. c #868C00",
"j. c #B78E06",
"k. c #B49705",
"l. c #A69204",
"z. c #95B100",
"x. c #8AA600",
"c. c #B5A802",
"v. c #BCB801",
"b. c #A6A600",
"n. c #CC890A",
"m. c #DC880C",
"M. c #CC9508",
"N. c #DD990A",
"B. c #E6840E",
"V. c #E68C0D",
"C. c #E6940C",
"Z. c #E69B0B",
"A. c #CBAF04",
"S. c #DFAE07",
"D. c #DFA808",
"F. c #C6B403",
"G. c #CBBA03",
"H. c #DFB506",
"J. c #E6A309",
"K. c #E6AB08",
"L. c #E6B407",
"P. c #E6BC06",
"I. c #96CC00",
"U. c #83DF00",
"Y. c #8ED500",
"T. c #92DD00",
"R. c #BDCF00",
"E. c #BFC600",
"W. c #AFDF00",
"Q. c #B9DB00",
"!. c #86E000",
"~. c #8CE100",
"^. c #93E300",
"/. c #9BE500",
"(. c #A3E600",
"). c #ABE600",
"_. c #B3E600",
"`. c #BBE600",
"'. c #C3C400",
"]. c #D7C104",
"[. c #DFCC03",
"{. c #DCC504",
"}. c #C4DB00",
"|. c #DBD601",
" X c #E6C405",
".X c #E6CC04",
"XX c #E6D403",
"oX c #E6DB02",
"OX c #C4E600",
"+X c #CCE600",
"@X c #D3E600",
"#X c #DBE600",
"$X c #E5E400",
"%X c None",
/* pixels */
"%X%X%X%X%X%X%X%X%X%X%X%X%X%X%X%X%X%X%X%X%X%X%X%X%X%X%X%X%X%X%X%X%X%X%X%X%X%X%X%X%X%X%X%X%X%X%X%X%X%X%X%X%X%X%X%X%X%X%X%X%X%X%X%X",
"%X%X%X%X%X%X%X%X%X%X%X%X%X%X%X%X%X%X%X%X%X%X%X%X%X%X%X%X%X%X%X%X%X%X%X%X%X%X%X%X%X%X%X%X%X%X%X%X%X%X%X%X%X%X%X%X%X%X%X%X%X%X%X%X",
"%X%X%X%X%X%X%X%X%X%X%X%X%X%X%X%X%X%X%X%X%X%X%X%X%X%X%X%X%X%X%X%X%X%X%X%X%X%X%X%X%X%X%X%X%X%X%X%X%X%X%X%X%X%X%X%X%X%X%X%X%X%X%X%X",
"%X%X%X%X%X%X%X%X%X%X%X%X%X%X%X%X%X%X%X%X%X%X%X%X%X                      %X%X%X%X%X%X%X%X%X%X%X%X%X%X%X%X%X%X%X%X%X%X%X%X%X%X%X%X",
"%X%X%X%X%X%X%X%X%X%X%X%X%X%X%X%X%X%X%X%X%X%X        = 0 0 i { i e 0 0           %X%X%X%X%X%X%X%X%X%X%X%X%X%X%X%X%X%X%X%X%X%X%X%X",
"%X%X%X%X%X%X%X%X%X%X%X%X%X%X%X%X%X%X%X      w } X.o.o.O.O.O.%.5.6.6.6.7.*. .s o     %X%X%X%X%X%X%X%X%X%X%X%X%X%X%X%X%X%X%X%X%X%X",
"%X%X%X%X%X%X%X%X%X%X%X%X%X%X%X%X%X    X u @.o.o.o.O.O.O.5.5.5.6.6.7.8.8.9.9.0.0...*     %X%X%X%X%X%X%X%X%X%X%X%X%X%X%X%X%X%X%X%X",
"%X%X%X%X%X%X%X%X%X%X%X%X%X%X%X%X    u @.o.o.O.O.O.%.%.&.#.{ { | $.*.8.0.0.0.q.e.r.r.3.o   %X%X%X%X%X%X%X%X%X%X%X%X%X%X%X%X%X%X%X",
"%X%X%X%X%X%X%X%X%X%X%X%X%X%X%X  & X.o.o.o.O.O.%.&.p &               o d 1.q.e.e.t.u.u.y.r   %X%X%X%X%X%X%X%X%X%X%X%X%X%X%X%X%X%X",
"%X%X%X%X%X%X%X%X%X%X%X%X%X%X  = +.o.o.O.O.%.%.a       %X%X%X%X%X%X%X      r 2.u.u.u.p.i.a.c   %X%X%X%X%X%X%X%X%X%X%X%X%X%X%X%X%X",
"%X%X%X%X%X%X%X%X%X%X%X%X%X  = +.O.O.O.5.5.&.X   %X%X%X%X%X%X%X%X%X%X%X%X%X    <.p.i.a.a.s.U.c   %X%X%X%X%X%X%X%X%X%X%X%X%X%X%X%X",
"%X%X%X%X%X%X%X%X%X%X%X%X  = +.O.O.5.5.6. .    %X%X%X%X%X%X%X%X%X%X%X%X%X%X%X    f s.s.U.U.!.~.t   %X%X%X%X%X%X%X%X%X%X%X%X%X%X%X",
"%X%X%X%X%X%X%X%X%X%X%X  O O.%.%.%.6.6. .    %X%X%X%X%X%X%X%X%X%X%X%X%X%X%X%X%X%X  :.!.!.!.^.^.^.;   %X%X%X%X%X%X%X%X%X%X%X%X%X%X",
"%X%X%X%X%X%X%X%X%X%X%X   .%.5.6.6.7.*.O   %X%X%X%X%X%X%X%X%X%X%X%X%X%X%X%X%X%X%X    4.^.^.^././.Y.    %X%X%X%X%X%X%X%X%X%X%X%X%X",
"%X%X%X%X%X%X%X%X%X%X  e 6.6.6.7.8.8.q   %X%X%X%X%X%X%X%X%X%X%X%X%X%X%X%X%X%X%X%X%X  @ Y./.(.(.).).,.  %X%X%X%X%X%X%X%X%X%X%X%X%X",
"%X%X%X%X%X%X%X%X%X%X  &.6.7.7.8.9.|   %X%X%X%X%X%X%X%X%X%X%X%X%X%X%X%X%X%X%X%X%X%X%X  v (.).).)._.W.@   %X%X%X%X%X%X%X%X%X%X%X%X",
"%X%X%X%X%X%X%X%X%X  a 7.7.9.9.9.w.o   %X%X%X%X%X%X%X%X%X%X%X%X%X%X%X%X%X%X%X%X%X%X%X%X  I._._.`.`.`.z.  %X%X%X%X%X%X%X%X%X%X%X%X",
"%X%X%X%X%X%X%X%X%X  $.9.9.w.0.q...  %X%X%X%X%X%X%X%X%X%X%X%X%X%X%X%X%X%X%X%X%X%X%X%X%X  b _.`.`.`.OXOX#   %X%X%X%X%X%X%X%X%X%X%X",
"%X%X%X%X%X%X%X%X  * 9.0.0.q.q.q.*   %X%X%X%X%X%X%X%X%X%X%X%X%X%X%X%X%X%X%X%X%X%X%X%X%X%X  Q.OXOXOX+X+X>.  %X%X%X%X%X%X%X%X%X%X%X",
"%X%X%X%X%X%X%X%X  d 0.e.q.e.t.2.  %X%X%X%X%X%X%X%X%X%X%X%X%X%X%X%X%X%X%X%X%X%X%X%X%X%X%X  z.OX+X+X+X@X'.  %X%X%X%X%X%X%X%X%X%X%X",
"%X%X%X%X%X%X%X%X  1.e.r.r.t.t.-.  %X%X%X%X%X%X%X%X%X%X%X%X%X%X%X%X%X%X%X%X%X%X%X%X%X%X%X  b @X@X@X#X@X#X*   %X%X%X%X%X%X%X%X%X%X",
"%X%X%X%X%X%X%X  O r.r.r.t.u.u.f   %X%X%X%X%X%X%X%X%X%X%X%X%X%X%X%X%X%X%X%X%X%X%X%X%X%X%X  : @X@X@X#X#X$Xm   %X%X%X%X%X%X%X%X%X%X",
"%X%X%X%X%X%X%X  r r.u.u.p.i.i.r   %X%X%X%X%X%X%X%X%X%X%X%X%X%X%X%X%X%X%X%X%X%X%X%X%X%X%X    #X#X#X$X#X$Xg.  %X%X%X%X%X%X%X%X%X%X",
"%X%X%X%X%X%X%X  =.u.u.i.i.a.s.    %X%X%X%X%X%X%X%X%X%X%X%X%X%X%X%X%X%X%X%X%X%X%X%X%X%X%X%X  E.$X$X$X$X$Xv.  %X%X%X%X%X%X%X%X%X%X",
"%X%X%X%X%X%X%X  -.i.a.a.s.s.s.    %X%X%X%X%X%X%X%X%X%X%X%X%X%X%X%X%X%X%X%X%X%X%X%X%X%X%X%X  '.$X$X$X$X$X'.  %X%X%X%X%X%X%X%X%X%X",
"%X%X%X%X%X%X%X  -.a.s.s.U.!.!.    %X%X%X%X%X%X%X%X%X%X%X%X%X%X%X%X%X%X%X%X%X%X%X%X%X%X%X%X  b.$X$X$XoX$XG.  %X%X%X%X%X%X%X%X%X%X",
"%X%X%X%X%X%X%X  ;.s.U.U.!.~.^.    %X%X%X%X%X%X%X%X%X%X%X%X%X%X%X%X%X%X%X%X%X%X%X%X%X%X%X%X  g.$X$X$XoXoX|.  %X%X%X%X%X%X%X%X%X%X",
"%X%X%X%X%X%X%X  ;.!.!.T.^.^./.    %X%X%X%X%X%X%X%X%X%X%X%X%X%X%X%X%X%X%X%X%X%X%X%X%X%X%X%X  g.oXoXoXoXoX{.  %X%X%X%X%X%X%X%X%X%X",
"%X%X%X%X%X%X%X  ;.^.^.^././.(.    %X%X%X%X%X%X%X%X%X%X%X%X%X%X%X%X%X%X%X%X%X%X%X%X%X%X%X%X  f.oXoXXXXXXXF.  %X%X%X%X%X%X%X%X%X%X",
"%X%X%X%X%X%X%X  :.^./.(.(.).).    %X%X%X%X%X%X%X%X%X%X%X%X%X%X%X%X%X%X%X%X%X%X%X%X%X%X%X%X  f.XXXXXX.X.XA.  %X%X%X%X%X%X%X%X%X%X",
"%X%X%X%X%X%X%X  t (.(.(.).)._.;   %X%X%X%X%X%X%X%X%X%X%X%X%X%X%X%X%X%X%X%X%X%X%X%X%X%X%X%X  G.XX.XXX.X Xk.  %X%X%X%X%X%X%X%X%X%X",
"%X%X%X%X%X%X%X  @ ).).)._._._.k   %X%X%X%X%X%X%X%X%X%X%X%X%X%X%X%X%X%X%X%X%X%X%X%X%X%X%X%X  A.XX X X X Xd.  %X%X%X%X%X%X%X%X%X%X",
"%X%X%X%X%X%X%X%X  I._._.`.`.`.>.  %X%X%X%X%X%X%X%X%X%X%X%X%X%X%X%X%X%X%X%X%X%X%X%X%X%X%X%X  {. X XP.P.P.h   %X%X%X%X%X%X%X%X%X%X",
"%X%X%X%X%X%X%X%X  x.`.`.OXOXOXx.  %X%X%X%X%X%X%X%X%X%X%X%X%X%X%X%X%X%X%X%X%X%X%X%X%X%X%X  #  X XP.P.P.L.    %X%X%X%X%X%X%X%X%X%X",
"%X%X%X%X%X%X%X%X  y OXOXOX+X+XR.  %X%X%X%X%X%X%X%X%X%X%X%X%X%X%X%X%X%X%X%X%X%X%X%X%X%X%X  z P.P.L.L.L.j.  %X%X%X%X%X%X%X%X%X%X%X",
"%X%X%X%X%X%X%X%X%X  Q.+X+X+X+X#X:   %X%X%X%X%X%X%X%X%X            %X%X%X%X%X%X%X%X%X%X%X  j.L.L.L.K.K.x   %X%X%X%X%X%X%X%X%X%X%X",
"%X%X%X%X%X%X%X%X%X  >.+X@X@X#X#Xh.  %X%X%X%X%X%X%X    # j f.f.n g       %X%X%X%X%X%X%X%X  K.L.K.K.J.N.  %X%X%X%X%X%X%X%X%X%X%X%X",
"%X%X%X%X%X%X%X%X%X%X  }.#X#X#X#X|.  %X%X%X%X%X%X    f.XXoXXXXXXXXX].d.    %X%X%X%X%X%X  x K.K.J.J.Z.I   %X%X%X%X%X%X%X%X%X%X%X%X",
"%X%X%X%X%X%X%X%X%X%X  n #X$X$X$X$Xn   %X%X%X%X    c.oXXXXXXXXX.X X X XA.6   %X%X%X%X%X  N.K.J.Z.Z.C.+   %X%X%X%X%X%X%X%X%X%X%X%X",
"%X%X%X%X%X%X%X%X%X%X%X  '.$X$X$X$X|.#   %X%X%X  f.XXXX[.c.l.A. X X X XP.H.6   %X%X%X  x J.Z.C.C.C.K   %X%X%X%X%X%X%X%X%X%X%X%X%X",
"%X%X%X%X%X%X%X%X%X%X%X  : oX$X$X$X$Xv.    %X%X  .X.X].#       z P.P.P.L.L.D.6   %X  - C.Z.C.C.V.(     %X%X%X%X%X%X%X%X%X%X%X%X%X",
"%X%X%X%X%X%X%X%X%X%X%X%X  j $X$XoXoXoXc.      j XX.XY   %X%X%X  6 S.L.L.K.K.M.    + n.C.C.V.V.m.7   %X%X%X%X%X%X%X%X%X%X%X%X%X%X",
"%X%X%X%X%X%X%X%X%X%X%X%X%X  n oXoXXXoXXXc.+   j  X Xh   %X%X%X%X  P K.J.J.J.Z.P 4 n.C.V.V.B.B.l   %X%X%X%X%X%X%X%X%X%X%X%X%X%X%X",
"%X%X%X%X%X%X%X%X%X%X%X%X%X%X  n XXXXXX.X.X{.d.z  XP.m   %X%X%X%X    n.J.Z.C.C.C.m.V.V.B.B._ l   %X%X%X%X%X%X%X%X%X%X%X%X%X%X%X%X",
"%X%X%X%X%X%X%X%X%X%X%X%X%X%X%X  g ]..X.X X X XP.P.P.j.+             - Z.C.C.V.V.V.B._ _ ) 9   %X%X%X%X%X%X%X%X%X%X%X%X%X%X%X%X%X",
"%X%X%X%X%X%X%X%X%X%X%X%X%X%X%X%X  # l. X XP.P.P.L.L.L.D.M.U U I U T m.C.V.V.V.B.B._ _ ^ -   %X%X%X%X%X%X%X%X%X%X%X%X%X%X%X%X%X%X",
"%X%X%X%X%X%X%X%X%X%X%X%X%X%X%X%X%X    - j.P.L.L.L.K.K.J.J.Z.Z.Z.Z.V.V.V.B.B._ _ _ ] 5     %X%X%X%X%X%X%X%X%X%X%X%X%X%X%X%X%X%X%X",
"%X%X%X%X%X%X%X%X%X%X%X%X%X%X%X%X%X%X%X    - I M.J.J.J.Z.Z.C.C.V.V.V.B.B._ _ _ [ ] L   %X%X%X%X%X%X%X%X%X%X%X%X%X%X%X%X%X%X%X%X%X",
"%X%X%X%X%X%X%X%X%X%X%X%X%X%X%X%X%X%X%X%X%X      + 8 I T / / / ( ( ^ T K ^ [ [ ] ] R   %X%X%X%X%X%X%X%X%X%X%X%X%X%X%X%X%X%X%X%X%X",
"%X%X%X%X%X%X%X%X%X%X%X%X%X%X%X%X%X%X%X%X%X%X%X%X                        4 ] ] ] ' ~ 5   %X%X%X%X%X%X%X%X%X%X%X%X%X%X%X%X%X%X%X%X",
"%X%X%X%X%X%X%X%X%X%X%X%X%X%X%X%X%X%X%X%X%X%X%X%X%X%X%X%X%X%X%X%X%X%X%X%X  R ' ~ ! ! E   %X%X%X%X%X%X%X%X%X%X%X%X%X%X%X%X%X%X%X%X",
"%X%X%X%X%X%X%X%X%X%X%X%X%X%X%X%X%X%X%X%X%X%X%X%X%X%X%X%X%X%X%X%X%X%X%X%X  9 ~ ~ ! ! Q 5   %X%X%X%X%X%X%X%X%X%X%X%X%X%X%X%X%X%X%X",
"%X%X%X%X%X%X%X%X%X%X%X%X%X%X%X%X%X%X%X%X%X%X%X%X%X%X%X%X%X%X%X%X%X%X%X%X%X  E ! Q W W A .   %X%X%X%X%X%X%X%X%X%X%X%X%X%X%X%X%X%X",
"%X%X%X%X%X%X%X%X%X%X%X%X%X%X%X%X%X%X%X%X%X%X%X%X%X%X%X%X%X%X%X%X%X%X%X%X%X  M ! W W W H B     %X%X%X%X%X    %X%X%X%X%X%X%X%X%X%X",
"%X%X%X%X%X%X%X%X%X%X%X%X%X%X%X%X%X%X%X%X%X%X%X%X%X%X%X%X%X%X%X%X%X%X%X%X%X%X  S H H G G J B             . >   %X%X%X%X%X%X%X%X%X",
"%X%X%X%X%X%X%X%X%X%X%X%X%X%X%X%X%X%X%X%X%X%X%X%X%X%X%X%X%X%X%X%X%X%X%X%X%X%X  > A G G J J F Z 2 $ $ 2 N C C >   %X%X%X%X%X%X%X%X",
"%X%X%X%X%X%X%X%X%X%X%X%X%X%X%X%X%X%X%X%X%X%X%X%X%X%X%X%X%X%X%X%X%X%X%X%X%X%X%X  , Z J F F D D D C C C C C C $   %X%X%X%X%X%X%X%X",
"%X%X%X%X%X%X%X%X%X%X%X%X%X%X%X%X%X%X%X%X%X%X%X%X%X%X%X%X%X%X%X%X%X%X%X%X%X%X%X%X  > Z D D D C C C C C C C 1   %X%X%X%X%X%X%X%X%X",
"%X%X%X%X%X%X%X%X%X%X%X%X%X%X%X%X%X%X%X%X%X%X%X%X%X%X%X%X%X%X%X%X%X%X%X%X%X%X%X%X%X  . M Z C C C C C C V 3   %X%X%X%X%X%X%X%X%X%X",
"%X%X%X%X%X%X%X%X%X%X%X%X%X%X%X%X%X%X%X%X%X%X%X%X%X%X%X%X%X%X%X%X%X%X%X%X%X%X%X%X%X%X    . 3 M M M 1 $     %X%X%X%X%X%X%X%X%X%X%X",
"%X%X%X%X%X%X%X%X%X%X%X%X%X%X%X%X%X%X%X%X%X%X%X%X%X%X%X%X%X%X%X%X%X%X%X%X%X%X%X%X%X%X%X%X              %X%X%X%X%X%X%X%X%X%X%X%X%X",
"%X%X%X%X%X%X%X%X%X%X%X%X%X%X%X%X%X%X%X%X%X%X%X%X%X%X%X%X%X%X%X%X%X%X%X%X%X%X%X%X%X%X%X%X%X%X%X%X%X%X%X%X%X%X%X%X%X%X%X%X%X%X%X%X",
"%X%X%X%X%X%X%X%X%X%X%X%X%X%X%X%X%X%X%X%X%X%X%X%X%X%X%X%X%X%X%X%X%X%X%X%X%X%X%X%X%X%X%X%X%X%X%X%X%X%X%X%X%X%X%X%X%X%X%X%X%X%X%X%X",
"%X%X%X%X%X%X%X%X%X%X%X%X%X%X%X%X%X%X%X%X%X%X%X%X%X%X%X%X%X%X%X%X%X%X%X%X%X%X%X%X%X%X%X%X%X%X%X%X%X%X%X%X%X%X%X%X%X%X%X%X%X%X%X%X"
};
